<svg width="15" height="15" viewBox="0 0 15 15" fill="none" xmlns="http://www.w3.org/2000/svg">
<path d="M9.3675 7.455C9.35579 6.96686 9.1541 6.50254 8.80537 6.16079C8.4566 5.81904 7.98827 5.62682 7.5 5.625L9.3675 7.455Z" fill="black"/>
<path d="M6.15 4.425C6.57377 4.23078 7.03387 4.12853 7.5 4.125C8.3951 4.125 9.25354 4.48057 9.8865 5.11353C10.5194 5.74646 10.875 6.60489 10.875 7.5C10.8748 7.8976 10.801 8.29171 10.6575 8.6625L12.75 10.605C13.6842 9.71689 14.4469 8.66432 15 7.5C15 7.5 12.75 2.25 7.5 2.25C6.4658 2.24458 5.44262 2.46201 4.5 2.8875L6.15 4.425ZM1.5 1.5L0.75 2.25L2.6625 4.05C1.54186 4.9996 0.63454 6.17528 0 7.5C0 7.5 2.25 12.75 7.5 12.75C8.71441 12.755 9.91079 12.4559 10.98 11.88L13.5 14.25L14.25 13.5L1.5 1.5ZM7.5 10.875C6.6049 10.875 5.74646 10.5194 5.1135 9.8865C4.48057 9.25357 4.125 8.3951 4.125 7.5C4.12913 6.92025 4.28422 6.35157 4.575 5.85L5.7225 6.93C5.66071 7.11382 5.62782 7.3061 5.625 7.5C5.62423 7.80525 5.69832 8.10603 5.84074 8.37603C5.98317 8.64603 6.18962 8.87696 6.44202 9.04867C6.69439 9.22039 6.98502 9.3276 7.28843 9.36096C7.59187 9.39432 7.89885 9.35278 8.1825 9.24L9.3375 10.3275C8.79135 10.685 8.15276 10.8753 7.5 10.875Z" fill="black"/>
</svg>
