<svg width="16" height="12" viewBox="0 0 16 12" fill="none" xmlns="http://www.w3.org/2000/svg">
<path fill-rule="evenodd" clip-rule="evenodd" d="M1.87001 6.52331L1.64101 6.00831L1.87001 5.49331C2.39696 4.3075 3.25654 3.29997 4.34458 2.59284C5.43261 1.88572 6.70238 1.50935 8.00001 1.50935C9.29764 1.50935 10.5674 1.88572 11.6554 2.59284C12.7435 3.29997 13.6031 4.3075 14.13 5.49331L14.358 6.00831L14.129 6.52331C13.6019 7.70884 12.7424 8.71608 11.6544 9.42299C10.5665 10.1299 9.29693 10.5062 7.99951 10.5062C6.70209 10.5062 5.43251 10.1299 4.34459 9.42299C3.25667 8.71608 2.3971 7.70884 1.87001 6.52331ZM0.500012 4.88431L0.240012 5.46931C0.164504 5.63915 0.125488 5.82295 0.125488 6.00881C0.125488 6.19468 0.164504 6.37848 0.240012 6.54831L0.500012 7.13231C1.145 8.58286 2.19678 9.81525 3.52795 10.6802C4.85911 11.5451 6.41253 12.0055 8.00001 12.0055C9.58749 12.0055 11.1409 11.5451 12.4721 10.6802C13.8032 9.81525 14.855 8.58286 15.5 7.13231L15.76 6.54831C15.8357 6.37834 15.8748 6.19436 15.8748 6.00831C15.8748 5.82226 15.8357 5.63829 15.76 5.46831L15.5 4.88431C14.855 3.43376 13.8032 2.20137 12.4721 1.33645C11.1409 0.471518 9.58749 0.0111694 8.00001 0.0111694C6.41253 0.0111694 4.85911 0.471518 3.52795 1.33645C2.19678 2.20137 1.145 3.43376 0.500012 4.88431ZM9.50001 6.00831C9.50001 6.40614 9.34198 6.78767 9.06067 7.06897C8.77937 7.35028 8.39784 7.50831 8.00001 7.50831C7.60219 7.50831 7.22066 7.35028 6.93935 7.06897C6.65805 6.78767 6.50001 6.40614 6.50001 6.00831C6.50001 5.61049 6.65805 5.22896 6.93935 4.94765C7.22066 4.66635 7.60219 4.50831 8.00001 4.50831C8.39784 4.50831 8.77937 4.66635 9.06067 4.94765C9.34198 5.22896 9.50001 5.61049 9.50001 6.00831ZM11 6.00831C11 6.80396 10.6839 7.56702 10.1213 8.12963C9.55872 8.69224 8.79566 9.00831 8.00001 9.00831C7.20436 9.00831 6.4413 8.69224 5.87869 8.12963C5.31608 7.56702 5.00001 6.80396 5.00001 6.00831C5.00001 5.21266 5.31608 4.4496 5.87869 3.88699C6.4413 3.32438 7.20436 3.00831 8.00001 3.00831C8.79566 3.00831 9.55872 3.32438 10.1213 3.88699C10.6839 4.4496 11 5.21266 11 6.00831Z" fill="black"/>
</svg>
