<svg width="36" height="35" viewBox="0 0 36 35" fill="none" xmlns="http://www.w3.org/2000/svg">
<g id="ic:baseline-call">
<path id="Vector" d="M29.502 22.2287C27.7066 22.2287 25.9696 21.9398 24.3494 21.4198C24.0956 21.3346 23.8227 21.322 23.5619 21.3833C23.3012 21.4446 23.0632 21.5774 22.8752 21.7664L20.5835 24.612C16.4527 22.662 12.5846 18.9787 10.5265 14.7464L13.3728 12.3487C13.767 11.9442 13.8837 11.3809 13.7232 10.8753C13.1831 9.27199 12.9058 7.5531 12.9058 5.77644C12.9058 4.99644 12.2489 4.34644 11.4607 4.34644H6.41032C5.62211 4.34644 4.67334 4.6931 4.67334 5.77644C4.67334 19.1953 15.9564 30.3464 29.502 30.3464C30.5383 30.3464 30.947 29.4364 30.947 28.642V23.6587C30.947 22.8787 30.2902 22.2287 29.502 22.2287Z" fill="#392A2A"/>
</g>
</svg>
