<svg width="16" height="16" viewBox="0 0 16 16" fill="none" xmlns="http://www.w3.org/2000/svg">
<path fill-rule="evenodd" clip-rule="evenodd" d="M1.87001 8.5233L1.64101 8.0083L1.87001 7.4933C2.39696 6.30748 3.25654 5.29996 4.34458 4.59283C5.43261 3.88571 6.70238 3.50934 8.00001 3.50934C9.29764 3.50934 10.5674 3.88571 11.6554 4.59283C12.7435 5.29996 13.6031 6.30748 14.13 7.4933L14.358 8.0083L14.129 8.5233C13.6019 9.70883 12.7424 10.7161 11.6544 11.423C10.5665 12.1299 9.29693 12.5061 7.99951 12.5061C6.70209 12.5061 5.43251 12.1299 4.34459 11.423C3.25667 10.7161 2.3971 9.70883 1.87001 8.5233ZM0.500012 6.8843L0.240012 7.4693C0.164504 7.63914 0.125488 7.82294 0.125488 8.0088C0.125488 8.19467 0.164504 8.37846 0.240012 8.5483L0.500012 9.1323C1.145 10.5829 2.19678 11.8152 3.52795 12.6802C4.85911 13.5451 6.41253 14.0054 8.00001 14.0054C9.58749 14.0054 11.1409 13.5451 12.4721 12.6802C13.8032 11.8152 14.855 10.5829 15.5 9.1323L15.76 8.5483C15.8357 8.37833 15.8748 8.19435 15.8748 8.0083C15.8748 7.82225 15.8357 7.63828 15.76 7.4683L15.5 6.8843C14.855 5.43375 13.8032 4.20136 12.4721 3.33643C11.1409 2.47151 9.58749 2.01116 8.00001 2.01116C6.41253 2.01116 4.85911 2.47151 3.52795 3.33643C2.19678 4.20136 1.145 5.43375 0.500012 6.8843ZM9.50001 8.0083C9.50001 8.40613 9.34198 8.78766 9.06067 9.06896C8.77937 9.35027 8.39784 9.5083 8.00001 9.5083C7.60219 9.5083 7.22066 9.35027 6.93935 9.06896C6.65805 8.78766 6.50001 8.40613 6.50001 8.0083C6.50001 7.61048 6.65805 7.22895 6.93935 6.94764C7.22066 6.66634 7.60219 6.5083 8.00001 6.5083C8.39784 6.5083 8.77937 6.66634 9.06067 6.94764C9.34198 7.22895 9.50001 7.61048 9.50001 8.0083ZM11 8.0083C11 8.80395 10.6839 9.56701 10.1213 10.1296C9.55872 10.6922 8.79566 11.0083 8.00001 11.0083C7.20436 11.0083 6.4413 10.6922 5.87869 10.1296C5.31608 9.56701 5.00001 8.80395 5.00001 8.0083C5.00001 7.21265 5.31608 6.44959 5.87869 5.88698C6.4413 5.32437 7.20436 5.0083 8.00001 5.0083C8.79566 5.0083 9.55872 5.32437 10.1213 5.88698C10.6839 6.44959 11 7.21265 11 8.0083Z" fill="black"/>
</svg>
