<svg width="36" height="35" viewBox="0 0 36 35" fill="none" xmlns="http://www.w3.org/2000/svg">
<g id="mingcute:facebook-line" clip-path="url(#clip0_0_271)">
<g id="Group">
<path id="Vector" fill-rule="evenodd" clip-rule="evenodd" d="M6.43968 17.3468C6.43989 15.123 7.08852 12.9465 8.30773 11.0785C9.52693 9.21041 11.2649 7.73017 13.3132 6.81536C15.3614 5.90055 17.6329 5.59003 19.8551 5.92105C22.0772 6.25207 24.1557 7.21058 25.841 8.68156C27.5264 10.1525 28.747 12.0735 29.3564 14.2139C29.9659 16.3544 29.9383 18.6234 29.2769 20.7487C28.6156 22.874 27.3485 24.7653 25.6279 26.1957C23.9073 27.6261 21.8061 28.5348 19.5765 28.8128V20.2357H22.4958C22.8829 20.2357 23.2542 20.0835 23.528 19.8126C23.8017 19.5417 23.9555 19.1743 23.9555 18.7912C23.9555 18.4081 23.8017 18.0407 23.528 17.7699C23.2542 17.499 22.8829 17.3468 22.4958 17.3468H19.5765V14.4579C19.5765 14.0748 19.7303 13.7074 20.004 13.4365C20.2778 13.1656 20.6491 13.0135 21.0362 13.0135H21.766C22.1531 13.0135 22.5244 12.8613 22.7981 12.5904C23.0719 12.3195 23.2257 11.9521 23.2257 11.569C23.2257 11.1859 23.0719 10.8185 22.7981 10.5476C22.5244 10.2767 22.1531 10.1246 21.766 10.1246H21.0362C19.8748 10.1246 18.761 10.5811 17.9398 11.3938C17.1186 12.2064 16.6572 13.3086 16.6572 14.4579V17.3468H13.7379C13.3508 17.3468 12.9795 17.499 12.7058 17.7699C12.4321 18.0407 12.2783 18.4081 12.2783 18.7912C12.2783 19.1743 12.4321 19.5417 12.7058 19.8126C12.9795 20.0835 13.3508 20.2357 13.7379 20.2357H16.6572V28.8128C13.8353 28.4606 11.2402 27.1015 9.35899 24.9904C7.47777 22.8793 6.43973 20.1614 6.43968 17.3468ZM18.1169 31.7912C26.1785 31.7912 32.7134 25.3245 32.7134 17.3468C32.7134 9.36912 26.1785 2.90234 18.1169 2.90234C10.0552 2.90234 3.52039 9.36912 3.52039 17.3468C3.52039 25.3245 10.0552 31.7912 18.1169 31.7912Z" fill="#392A2A"/>
</g>
</g>
<defs>
<clipPath id="clip0_0_271">
<rect width="35.0316" height="34.6667" fill="white" transform="translate(0.601074 0.0134277)"/>
</clipPath>
</defs>
</svg>
