<svg width="36" height="35" viewBox="0 0 36 35" fill="none" xmlns="http://www.w3.org/2000/svg">
<g id="mdi:instagram">
<path id="Vector" d="M12.2929 2.90234H24.5539C29.2248 2.90234 33.0199 6.6579 33.0199 11.2801V23.4135C33.0199 25.6354 32.1279 27.7663 30.5403 29.3374C28.9526 30.9086 26.7992 31.7912 24.5539 31.7912H12.2929C7.62199 31.7912 3.8269 28.0357 3.8269 23.4135V11.2801C3.8269 9.0582 4.71885 6.92728 6.30653 5.35614C7.8942 3.785 10.0476 2.90234 12.2929 2.90234ZM12.0009 5.79123C10.6073 5.79123 9.27073 6.33909 8.28528 7.31428C7.29982 8.28947 6.7462 9.61211 6.7462 10.9912V23.7023C6.7462 26.5768 9.09624 28.9023 12.0009 28.9023H24.8458C26.2395 28.9023 27.5761 28.3545 28.5615 27.3793C29.547 26.4041 30.1006 25.0815 30.1006 23.7023V10.9912C30.1006 8.11679 27.7506 5.79123 24.8458 5.79123H12.0009ZM26.0866 7.9579C26.5705 7.9579 27.0345 8.14813 27.3767 8.48673C27.7189 8.82534 27.9111 9.28459 27.9111 9.76345C27.9111 10.2423 27.7189 10.7016 27.3767 11.0402C27.0345 11.3788 26.5705 11.569 26.0866 11.569C25.6026 11.569 25.1386 11.3788 24.7964 11.0402C24.4542 10.7016 24.262 10.2423 24.262 9.76345C24.262 9.28459 24.4542 8.82534 24.7964 8.48673C25.1386 8.14813 25.6026 7.9579 26.0866 7.9579ZM18.4234 10.1246C20.359 10.1246 22.2153 10.8855 23.584 12.2399C24.9527 13.5943 25.7216 15.4313 25.7216 17.3468C25.7216 19.2622 24.9527 21.0992 23.584 22.4537C22.2153 23.8081 20.359 24.569 18.4234 24.569C16.4878 24.569 14.6314 23.8081 13.2628 22.4537C11.8941 21.0992 11.1251 19.2622 11.1251 17.3468C11.1251 15.4313 11.8941 13.5943 13.2628 12.2399C14.6314 10.8855 16.4878 10.1246 18.4234 10.1246ZM18.4234 13.0135C17.262 13.0135 16.1482 13.47 15.327 14.2827C14.5058 15.0953 14.0444 16.1975 14.0444 17.3468C14.0444 18.4961 14.5058 19.5983 15.327 20.4109C16.1482 21.2236 17.262 21.6801 18.4234 21.6801C19.5848 21.6801 20.6986 21.2236 21.5198 20.4109C22.341 19.5983 22.8023 18.4961 22.8023 17.3468C22.8023 16.1975 22.341 15.0953 21.5198 14.2827C20.6986 13.47 19.5848 13.0135 18.4234 13.0135Z" fill="#392A2A"/>
</g>
</svg>
