<svg width="40" height="40" viewBox="0 0 40 40" fill="none" xmlns="http://www.w3.org/2000/svg">
<g id="mdi:sale">
<rect width="40" height="40" fill="#F9F1E9"/>
<path id="Vector" d="M31.0832 4.75002L32.0999 11.1834L37.9499 14.1667L34.9999 20L37.9665 25.8334L32.0665 28.8167L31.0499 35.25L24.5665 34.2334L19.9499 38.8334L15.3165 34.1667L8.8832 35.2334L7.84987 28.75L2.0332 25.7834L4.99987 19.95L2.04987 14.1667L7.89987 11.15L8.91654 4.76669L15.3665 5.83336L19.9999 1.15002L24.6165 5.76669L31.0832 4.75002ZM15.8332 11.6667C15.1702 11.6667 14.5343 11.9301 14.0654 12.3989C13.5966 12.8678 13.3332 13.5036 13.3332 14.1667C13.3332 14.8297 13.5966 15.4656 14.0654 15.9345C14.5343 16.4033 15.1702 16.6667 15.8332 16.6667C16.4962 16.6667 17.1321 16.4033 17.601 15.9345C18.0698 15.4656 18.3332 14.8297 18.3332 14.1667C18.3332 13.5036 18.0698 12.8678 17.601 12.3989C17.1321 11.9301 16.4962 11.6667 15.8332 11.6667ZM24.1665 23.3334C23.5035 23.3334 22.8676 23.5968 22.3988 24.0656C21.9299 24.5344 21.6665 25.1703 21.6665 25.8334C21.6665 26.4964 21.9299 27.1323 22.3988 27.6011C22.8676 28.07 23.5035 28.3334 24.1665 28.3334C24.8296 28.3334 25.4655 28.07 25.9343 27.6011C26.4031 27.1323 26.6665 26.4964 26.6665 25.8334C26.6665 25.1703 26.4031 24.5344 25.9343 24.0656C25.4655 23.5968 24.8296 23.3334 24.1665 23.3334ZM14.0165 28.3334L28.3332 14.0167L25.9832 11.6667L11.6665 25.9834L14.0165 28.3334Z" fill="#CC2A06"/>
</g>
</svg>
