<svg width="36" height="35" viewBox="0 0 36 35" fill="none" xmlns="http://www.w3.org/2000/svg">
<g id="mingcute:twitter-line" clip-path="url(#clip0_0_277)">
<g id="Group">
<path id="Vector" fill-rule="evenodd" clip-rule="evenodd" d="M26.7608 10.1085C26.2455 9.37476 24.8676 8.34343 22.6358 8.78832C21.3338 9.04687 20.5558 9.68387 20.061 10.5245C19.5341 11.4201 19.2786 12.6378 19.2786 14.0548C19.2786 14.4379 19.1249 14.8053 18.8511 15.0761C18.5774 15.347 18.2061 15.4992 17.819 15.4992C14.3655 15.4992 11.0783 14.4838 8.3123 11.7379C8.10346 12.852 8.02121 13.9857 8.06707 15.1179C8.14444 16.6865 8.52248 18.2595 9.42017 19.6072C10.3033 20.9318 11.7556 22.1451 14.1845 22.9078C14.4225 22.9825 14.6371 23.1164 14.8079 23.2966C14.9787 23.4768 15.0999 23.6974 15.1599 23.9373C15.22 24.1771 15.2168 24.4282 15.1508 24.6665C15.0848 24.9047 14.9582 25.1223 14.7829 25.2983C14.0049 26.088 13.1232 26.7706 12.1614 27.3278C13.7086 27.4867 15.2004 27.4982 16.5841 27.374C19.3867 27.1227 21.6185 26.3297 23.0139 25.2073C25.9522 22.85 27.5242 19.3342 27.2323 13.4438C27.1826 12.476 28.127 11.4317 28.5824 10.6387C27.895 10.7658 27.206 10.7427 26.7608 10.1085ZM7.45986 7.21243C7.72413 7.18203 7.99178 7.2237 8.23386 7.33291C8.47594 7.44213 8.68325 7.61474 8.83339 7.83209C10.9878 10.9507 13.5743 12.2478 16.4455 12.5424C16.5856 11.3277 16.9169 10.1273 17.5402 9.06998C18.4539 7.51865 19.9399 6.37754 22.0622 5.95576C24.9961 5.37221 27.2293 6.42376 28.5241 7.71076L31.1397 7.22687C31.4135 7.17612 31.6961 7.20391 31.9544 7.30696C32.2127 7.41002 32.4358 7.58403 32.5974 7.80847C32.759 8.03292 32.8523 8.29842 32.8664 8.57364C32.8804 8.84887 32.8146 9.12233 32.6768 9.36176L30.1662 13.7269C30.3953 20.0261 28.6262 24.423 24.8545 27.452C22.8548 29.0582 19.9909 29.9697 16.8483 30.2513C13.6809 30.5344 10.1004 30.1921 6.54174 29.1637C6.23768 29.0759 5.97073 28.8926 5.78116 28.6415C5.59158 28.3905 5.48969 28.0852 5.49084 27.7717C5.49199 27.4583 5.59613 27.1538 5.78755 26.904C5.97896 26.6543 6.24726 26.473 6.55196 26.3874C8.34149 25.8833 9.7048 25.4485 10.9353 24.6873C9.18517 23.7687 7.8963 22.5669 6.98401 21.1975C5.71704 19.2938 5.24703 17.1704 5.15361 15.2565C5.0602 13.3427 5.33899 11.5689 5.63384 10.2905C5.8017 9.56109 5.99729 8.83021 6.26733 8.13109C6.36258 7.88466 6.52422 7.66875 6.73471 7.50679C6.9452 7.34484 7.19503 7.24304 7.45986 7.21243Z" fill="#392A2A"/>
</g>
</g>
<defs>
<clipPath id="clip0_0_277">
<rect width="35.0316" height="34.6667" fill="white" transform="translate(0.754272 0.0134277)"/>
</clipPath>
</defs>
</svg>
