<svg width="15" height="15" viewBox="0 0 15 15" fill="none" xmlns="http://www.w3.org/2000/svg">
<path d="M7.50001 5.625C7.00271 5.625 6.52582 5.82255 6.17419 6.17417C5.82256 6.5258 5.62501 7.00273 5.62501 7.5C5.62501 7.99727 5.82256 8.4742 6.17419 8.82583C6.52582 9.17745 7.00271 9.375 7.50001 9.375C7.99728 9.375 8.47421 9.17745 8.82584 8.82583C9.17747 8.4742 9.37501 7.99727 9.37501 7.5C9.37501 7.00273 9.17747 6.5258 8.82584 6.17417C8.47421 5.82255 7.99728 5.625 7.50001 5.625ZM7.50001 10.625C6.67121 10.625 5.87635 10.2958 5.2903 9.70971C4.70422 9.12366 4.37499 8.3288 4.37499 7.5C4.37499 6.6712 4.70422 5.87634 5.2903 5.29029C5.87635 4.70424 6.67121 4.37501 7.50001 4.37501C8.32882 4.37501 9.12364 4.70424 9.70972 5.29029C10.2958 5.87634 10.625 6.6712 10.625 7.5C10.625 8.3288 10.2958 9.12366 9.70972 9.70971C9.12364 10.2958 8.32882 10.625 7.50001 10.625ZM7.50001 2.8125C4.37499 2.8125 1.70625 4.75626 0.625 7.5C1.70625 10.2437 4.37499 12.1875 7.50001 12.1875C10.625 12.1875 13.2937 10.2437 14.375 7.5C13.2937 4.75626 10.625 2.8125 7.50001 2.8125Z" fill="black"/>
</svg>
